<svg version="1.0" xmlns="http://www.w3.org/2000/svg" width="710.667" height="710.667" viewBox="0 0 533 533"><path d="M242 113c-28.5 1.7-40.3 6.2-58.7 22.4-6.4 5.7-13.2 8.6-20 8.6-4.3 0-13.7-3.2-22.7-7.7-7.7-3.9-16.9-5.3-21.8-3.4-3.9 1.5-6 6.4-6 13.7 0 9 4.2 17.5 13.1 26.8 6.8 6.9 7 7.4 8.1 14.1 1.5 9.3 3.5 12.7 8.8 14.4 6.5 2 7.7 5.1 7.6 18.6-.1 8.3-.8 13.6-2.8 21.5-4 16.2-3.3 27.9 2.5 43.2 1.7 4.2 5.2 11.1 8 15.3 2.7 4.2 4.9 7.7 4.9 7.8 0 .1-15.4.2-34.3.3-28 0-35.6.3-42.2 1.7-9.2 1.9-11.9 3.8-9.3 6.3 1.4 1.4 2.3 1.5 6 .6 9.9-2.5 28.6-3.5 57.2-2.9 22.4.4 29 .8 29.7 1.8.4.7.7 1.4.6 1.5-.1.2-9 .7-19.8 1.4-19.2 1-32.1 2.6-40.6 4.9-3.6 1-4.3 1.6-4.3 3.6 0 3.4 1.3 3.8 7.2 2 7.4-2.2 26.2-4.2 47-5.1 17.1-.6 17.7-.6 20.4 1.5 2.3 1.8 2.4 2.1.8 2.1-11.9.1-56.5 5-68.9 7.6-14.4 3-19.2 5.4-17.9 8.9.8 1.9 1.7 1.8 13.4-1.4 13.1-3.6 43-7.3 70.5-8.7 11.3-.6 13.2-.5 14.4.9 1.6 1.9 2.4 1.8-18.9 4.6-15.1 2-31.1 5.8-33.2 7.9-1.6 1.6.9 5.5 3 4.7 7.2-2.9 25.1-6.3 47.9-9l5.2-.7.4 3.4c.3 1.8 1 7 1.6 11.5 1 8.3 4 15.6 8.7 21.9 2.8 3.6 10.3 7.9 15.6 8.9 2.5.5 4.5 1.8 6.7 4.5l3 3.8-2.5 2.3c-4 3.7-11.6 15.7-11.2 17.6.2 1 1.2 1.9 2.3 2.1 1.5.2 3.1-1.3 6.2-6 2.3-3.5 5.7-7.8 7.5-9.5l3.4-3.3 4.1 1.6 4.1 1.6-1.3 3.7c-.7 2-1.6 5.5-1.9 7.8-.6 3.5-.5 4.3 1.2 5.2 2.5 1.3 3.7 0 4.7-4.9.4-1.9 1.3-4.9 2-6.7l1.3-3.2h13.6c15.4 0 14.7-.4 16.7 9.1 1.3 5.9 2.4 7.1 5.2 5.7 1.5-.9 1.7-1.7 1.1-5.2-.3-2.3-1.2-5.8-1.9-7.8l-1.3-3.7 4.1-1.6 4.1-1.6 3.4 3.3c1.8 1.7 5.2 6 7.5 9.5 3.1 4.7 4.7 6.2 6.2 6 1.1-.2 2.1-1.1 2.3-2.2.4-2-7.1-13.6-11.2-17.5l-2.5-2.3 3.1-3.9c2.2-2.7 4.2-4.1 6.7-4.5 5.2-.9 12.7-5.2 15.5-8.8 6-7.9 9.5-18.8 9.6-29.8 0-3.1.4-5.9.9-6.2 2.3-1.4 37.3 4.1 48.4 7.7 5.9 1.8 6.9 1.9 7.7.7.6-.8 1-2.1 1-2.8 0-3-15.8-7-39.5-10.1-8-1-14.8-2.1-15.2-2.4-.3-.4.7-1.2 2.1-1.8 2.2-1 7.3-.9 25.6.4 26.8 2.1 46.8 4.8 59.8 8.2 11.1 3 11.8 3 12.6.8 1.1-2.7-1.4-4.2-11.4-6.7-14.4-3.6-53.5-8.6-67.9-8.6-2.5 0-5.6-.3-6.8-.6l-2.3-.6 2.4-1.9c2.2-1.7 3.6-1.8 23.7-.9 23.1 1 34.4 2.2 42.8 4.6 6.2 1.8 8.4 1.3 7.9-1.8-.6-4.3-18.1-7.5-47.1-8.5-18.7-.6-18.8-.6-16.9-2.6 1.9-1.8 3.6-1.9 35.8-2.1 23.6 0 36.3.3 41.9 1.2 16.1 2.7 15.2 2.7 16 .2 1-3.1-.1-3.8-9.1-5.7-6.4-1.4-14.3-1.7-42.6-1.7-19.2-.1-34.8-.3-34.8-.5s2-3.4 4.5-7.1c8.4-12.7 13.5-28.6 13.5-42.2 0-3.5-1.2-10.8-2.5-16.3-3.2-12.5-4.2-28.4-2.3-34 1.2-3.3 2.3-4.4 6.5-6.4 6-2.8 7.8-5.5 9.3-14.4 1.2-6.5 1.5-7.1 8.4-14.1 9-9 12.8-16.4 13.4-25.8.3-5.5 0-7.3-1.8-10.6-2.5-4.4-4.1-5.2-11.4-5.2-3.8 0-7.4 1.1-15.8 5-13.1 6-18.4 7.4-24.8 6.7-6.5-.8-11.6-3.6-19.2-10.3-16.3-14.7-27.5-18.6-58.6-20.4-18.4-1.1-28.4-1.1-47.2 0zm51.6 6c24.4 2 35.3 6 48.9 18 4.4 3.9 9.6 8 11.5 9 5.5 2.8 14 4.1 20.7 3 3.2-.6 6-1 6.3-1 1.9.1-10.7 6.4-16 8-5.8 1.9-7.4 2-15.2 1-4.9-.6-11.9-2.2-15.7-3.5-8.1-3-9.7-3.1-10.6-.8-.9 2.6 2.5 4.9 10.8 7.4 11.1 3.2 19.1 7.6 25.6 13.8 6.6 6.3 10 12.3 11 19 .5 4.1.9 4.6 3.1 4.6 2.1 0 2.5-.5 2.8-3.6.6-7.5-5.8-19-15-26.6l-3.8-3.1 5-1.1c6.6-1.4 18.9-7.7 32.1-16.3 13-8.4 16.3-9.5 18.4-6.5 2.1 3 1.9 8.6-.6 15.3-1.6 4.1-4.1 7.8-9.4 13.3-8.4 8.9-8.9 9.6-10.5 17.6-1.4 6.8-2.6 9.5-4.1 9.5-3 0-7.8 3.5-9.8 7.1-4.3 7.6-3.8 25.7 1.1 42.9 4.5 16.1.2 35.8-12 53.6-6.2 9.2-7 9.7-16.7 10.2-8.6.5-11.1 1.6-9.9 4.5.4 1.2 2.2 1.7 6.6 1.9l6 .3-7 5.2c-3.8 2.9-7.8 5.3-8.9 5.3-1.8 0-1.9-.4-1.2-4.8.8-4.9 2.1-8.6 4.1-11.4 1-1.4 1-2.1-.3-3.3-.9-.9-2.3-1.3-3.3-.9-2.2.8-5.2 6.9-6.1 11.9-1.2 7.8-1.5 8.4-3.8 8.7-3.1.4-3.1 5.2.1 5.6 2.7.4 2.9 2.8.2 3.5-2.4.6-2.7 4.5-.5 5.3 1.1.5 1.5 2.2 1.5 6.5 0 14.9-5.9 27.7-15.1 32.5-4.3 2.2-23.3 3.2-29.7 1.5-7.4-2.1-14.2-9.8-14.2-16.3 0-1.6 1.3-3.1 4.3-5 6.3-4 8.2-6.5 8.2-10.6 0-3.1.6-4 4.5-6.9 8.9-6.5 10-7.8 10-11.6 0-2.6-.7-4.1-2.6-5.6-1.4-1.1-3.2-1.7-4-1.4-1.6.6-1.9 3.9-.4 4.8 2.2 1.4.7 3.5-5.5 8-7.3 5.2-8.9 7.5-8.1 11.5.5 2.5 0 3.2-4.5 6.1l-5.1 3.2-3.1-1.8c-5.3-3-6.7-4.7-6.7-7.9 0-4.2-1.9-6.7-9-11.7-5.8-4-7.1-6.1-5-7.4 1.6-1 1.2-4.2-.7-4.9-2.2-.9-6.3 3.1-6.3 6 0 4 2 6.8 8.4 11.4 5.2 4 6.1 5 5.8 7.4-.4 3.8 1.7 6.7 7.7 10.5 5.6 3.6 6.2 5.5 3.7 11.4-2.1 5.2-7.7 9.4-14.3 10.7-6.5 1.4-22.1.8-26.8-1-7-2.6-13.3-11.8-15.3-22-1.9-9.4-1.8-16.1.1-17.1 2.4-1.4 2.2-5-.3-5.6-2.5-.7-2.6-3.3-.1-3.3 1 0 2.4-.6 3-1.4 1.6-2 .3-4.6-2.4-4.6-2 0-2.4-.6-3-5.3-.8-6-3.4-12.6-5.8-14.5-2.2-1.9-5.1-1.1-5.5 1.3-.3 2-.6 2-9.9 1l-9.7-1-4.3-5.5c-5.6-7-12.8-21.6-14.7-30-2.3-9.5-2-18 1.1-31 3.6-15.6 3.9-31.4.6-38-2.2-4.4-6.5-8-9.7-8-2 0-3.2-2.3-4.5-9.2-1.4-7.9-3.2-10.9-10.5-18.1-9.7-9.7-14.2-22-10.2-28.2 2.3-3.5 4.9-2.7 17.6 5.7 13.1 8.6 27.3 15.8 32.8 16.5 2.3.3 4.2.7 4.2.9 0 .2-2.8 3.2-6.3 6.7-7.8 7.7-11.1 14.2-11.2 21.7 0 4.5.3 5.5 1.9 5.8 2.3.5 3.6-1.4 3.6-5.4 0-4.9 4.7-12.9 11.1-18.8 7.4-6.9 13-10.2 20.4-12.1 10.1-2.7 15.5-5.5 15.5-8 0-3.2-2-3.6-7.1-1.3-6.6 2.9-16.3 4.9-24.9 5-7.1.1-8.4-.2-16.5-4.1-4.8-2.3-8.5-4.4-8.3-4.6.1-.1 3.1.1 6.5.7 4.9.7 7.6.6 12.5-.7 7.3-1.8 11-4.1 20.3-12.4 15.7-13.9 30.8-17.6 72.6-18 9.1 0 22.4.4 29.5.9zm-99.7 195.7c.7 1.5 1.5 4.9 1.8 7.5.5 4.5.4 4.8-1.7 4.8-1.9 0-14.8-9.5-14.9-11-.1-.3 2.6-.3 5.9-.2 5.5.4 6 .2 6-1.7 0-2.9 1.4-2.6 2.9.6zm83.4 71.5c2.8 1.4 6.8 2.2 12.6 2.6l8.5.5-3 2.4c-3.6 2.9-11.6 6.1-12.1 4.8-.2-.6-1.2-2.5-2.3-4.3-2.1-3.5-4.1-4-6-1.7-1 1.2-.9 2 .4 4 .9 1.3 1.6 2.9 1.6 3.5 0 .6-3.9 1-10.5 1-5.8 0-10.5-.2-10.5-.5 0-.4.7-2 1.6-3.6 1.8-3.6 1.2-5.9-1.6-5.9-1.8 0-5.1 4-6.3 7.5-.5 1.3-8.5-1.9-12.1-4.8l-3-2.4 8.5-.5c10-.6 15.2-2.9 20.1-8.7l3.3-3.9 3.3 3.9c1.9 2.2 5.3 4.9 7.5 6.1z"/><path d="M211.3 186.6c-.6 1.6 1.5 8.6 4.6 15.4 1.7 3.6 4.8 5.1 6.1 2.9.8-1.2-4.1-16.2-6.2-18.6-1.5-1.8-3.7-1.6-4.5.3zM317.2 186.2c-.6.8-2.5 4.9-4.1 9.3-2.8 7.1-2.9 8.1-1.6 9.5 1.1 1.1 2 1.2 3.2.4 1.9-1.2 7.5-15.1 7.1-17.9-.4-2.4-3-3.1-4.6-1.3zM231.6 187.2c-.2.7-.7 4.5-1 8.4-.4 5.4-.3 7.4.8 8.3 3.6 3 6.1-2.9 5.4-12.9-.2-3.8-.7-4.6-2.6-4.8-1.2-.2-2.4.3-2.6 1zM295.6 186.8c-.8 1.3.9 16.1 2 17.2.6.6 1.8.8 2.7.4 1.3-.5 1.7-1.9 1.7-6.4 0-9.1-.9-12-3.6-12-1.2 0-2.5.4-2.8.8zM190.3 192.7c-2.5.9-1.2 3.7 5.9 12.5 5.4 6.6 7.7 8.8 9.2 8.6 4-.6 2.7-4.1-4.7-12.7-7.3-8.6-8.2-9.3-10.4-8.4zM339.4 192.8c-.5.4-4.1 4.4-7.8 8.9-6.8 8.4-7.9 11.5-4.1 12.1 1.5.2 3.9-2.1 9.3-8.7 7.4-9.1 8.4-11.4 5.6-12.5-1.9-.7-1.7-.7-3 .2zM207.2 221.9c-5 3.1 6.6 10 22.2 13.1 10.8 2.1 14.1 4.1 15.4 9.4.6 2.4 1.4 3.1 3.3 3.1s2.5-.6 2.7-3c.6-7.4-7.3-13.5-20.8-15.8-6.7-1.2-15.5-4.2-21-7.4-.3-.1-1.1.1-1.8.6zM319.8 224.1c-3.2 1.7-8.3 3.5-11.5 4.1-15.9 3-22.3 6.5-24.2 13.5-1.2 4.4-.5 6.3 2.3 6.3 1.8 0 2.5-.9 3.5-4 1.6-5.3 5-7.4 15.4-9.3 9.3-1.7 18-4.8 21.7-7.7 2-1.5 2.3-2.3 1.4-3.6-1.6-2.6-2.4-2.5-8.6.7zM186.3 226.7c-2.7 1-1.2 4.3 3.1 6.8l4.4 2.6-.5 5.8c-.8 8.5 1.6 14.8 7.6 20.5 9.4 8.7 21.2 9.4 32.2 2l5.1-3.4-.7 7.5c-.6 6.5-.4 7.6 1 8.1 2.6 1 4.4-1.6 5.1-7.8.9-7.8-.3-16.1-2.9-20-3.6-5.3-10-9.5-16.4-10.8-15-2.9-22.7-5.1-29-8.2-8.2-4-7.5-3.7-9-3.1zm17.1 13.3c2 .7 2.6 1.6 2.6 4 0 7.4 5.6 12.5 12.7 11.7 4.9-.5 8-2.8 9.8-7l1.2-2.9 2.9 2.6 2.9 2.5-2 3.8c-6.8 12.8-25.9 11.4-32.9-2.4-1.7-3.4-2.2-13.3-.7-13.3.5 0 2.1.4 3.5 1zm17.1 3.5c3 .6 3.2 2.5.5 5-2.4 2.2-6.5 1.4-8-1.6-1.7-3-.5-5.1 2.5-4.4 1.4.3 3.6.7 5 1z"/><path d="M337.1 230c-6.7 3.4-11 4.7-28.3 8-7.2 1.4-13.7 5.7-16.8 11.2-2.2 3.8-2.5 5.5-2.5 14.5 0 8.2.3 10.6 1.7 11.9.9.9 2.4 1.4 3.3 1.1 1.4-.6 1.5-1.8.9-8.3l-.7-7.6 4.9 3.5c9 6.4 17.7 7.1 27.4 2.2 9-4.5 13.6-13.3 12.7-24.1l-.5-6.3 4.5-2.7c3.4-1.9 4.3-3.1 4.1-4.7-.4-3.2-2.5-3-10.7 1.3zm-3.6 15.3c0 4.6-.6 6.4-3 9.8-5.6 7.8-15.6 10.5-24 6.3-3.6-1.7-8.5-7.3-8.5-9.6 0-.5 1.2-2 2.7-3.4l2.8-2.6 1.2 3.1c4.5 11 21.5 7.6 21.5-4.3 0-2.9.5-3.7 2.7-4.5 4-1.5 4.6-.8 4.6 5.2zm-13.5-1c0 5.4-8 7.6-9.5 2.6-1-3.2 0-3.8 8.3-4.8.6 0 1.2 1 1.2 2.2zM181.7 268.7c-1.8 1.7-.3 4.2 4.2 7.2 5.5 3.5 10.9 10.1 11.8 14.3.7 3.4 2.7 5.2 4.9 4.4 1.3-.5 1.5-1.5 1.1-4.8-.7-5.4-4.8-11.1-12.2-17-5.6-4.5-8.3-5.7-9.8-4.1zM343.4 271.4c-8 5.4-14.4 14.3-14.4 20.1 0 5.3 5.3 4 6.5-1.5.8-3.5 8.2-12 13-15 3.7-2.3 4.6-5.4 1.9-6.4-.9-.3-1.6-.6-1.7-.6-.1 0-2.5 1.5-5.3 3.4zM249.5 278c-1 1.6 1.4 10.7 4.2 16.4 2.7 5.3 10.8 14.6 12.8 14.6s10-9.4 12.5-14.5c2.8-5.7 5-14.2 4.3-16.1-1.1-2.8-4.7-1.1-5.6 2.6-1.7 6.8-3.9 11.5-7.5 16.4l-3.6 4.9-2.8-3.4c-3.6-4.2-6.7-10.6-8.2-16.7-.9-3.5-1.7-4.8-3.3-5-1.2-.2-2.4.2-2.8.8zM218.3 295.2c-7.7 11.9-8.6 18.9-3.6 27.6 1.9 3.3 3 4.2 4.6 4 2.7-.4 3.4-3.3 1.4-5.6-4.8-5.6-3.8-12.4 3.2-23.2 4.5-6.9 4.8-9.3 1.4-9.8-1.8-.3-3.2 1.1-7 7zM305.4 289.5c-.4.9 1.1 4.2 3.4 7.8 7.9 12 8.6 17 3.6 23.8-1.8 2.4-2.1 3.6-1.3 5 1.4 2.6 2.6 2.4 5.9-1.2 7.2-8 5.9-19.2-3.9-32.7-3.2-4.3-6.6-5.5-7.7-2.7zM301.1 325.4c-.7.8-1.2 2.5-1.1 3.8.5 5.1-.1 7.1-3 10-4.9 4.9-3.5 9 2.2 6.2 5.4-2.8 9.3-13.3 6.6-18.3-1.6-3.1-3.1-3.6-4.7-1.7zM227.1 326.9c-2.6 4.8.4 14.2 5.8 18 6 4.3 8.2.3 3.1-5.6-1.6-1.8-3.1-4.1-3.1-5.1-.1-.9-.2-3.3-.3-5.2-.1-2.8-.5-3.6-2.3-3.8-1.4-.2-2.6.4-3.2 1.7zM250.3 328.7c-4.1 1.6 2.4 8.7 10.4 11.4 6.4 2.1 17-.8 21.7-6 4-4.4-.8-7.7-5.4-3.7-6.2 5.1-13.6 5.2-20.9.2-2-1.4-3.9-2.6-4.2-2.5-.2 0-1 .3-1.6.6zM214.8 345.1c-2.8 1.6-2.3 5.7.8 7.1 2.3 1.1 2.9 1 4.5-1.1 1.7-2.1 1.8-2.6.6-4.5-1.7-2.5-3.5-3-5.9-1.5zM312.6 346.2c-2.7 3.8 1.2 8.1 5.3 5.8 2.5-1.3 2.7-4.2.5-6.4-2.1-2.2-4-2-5.8.6zM230.4 355.4c-.3.8-.4 2.5-.2 3.8.2 1.8.9 2.3 3.2 2.3 3.6 0 5.6-2.7 4-5.3-1.4-2.2-6.2-2.8-7-.8zM296.2 355.2c-3 3-.1 7.5 4.3 6.4 2.2-.6 2.6-1.1 2.3-3.9-.2-2.6-.8-3.3-2.8-3.5-1.4-.2-3.1.3-3.8 1zM215.6 360.6c-2.1 2-2 3 .4 5.4 1.1 1.1 2.4 2 2.9 2 1.6 0 4.1-3 4.1-4.9 0-3.8-4.5-5.4-7.4-2.5zM311 360.5c-1.5 1.8-.6 6.1 1.6 6.9 1.8.7 4.9-.8 5.7-2.8.8-1.9-2-5.6-4.2-5.6-1 0-2.4.7-3.1 1.5zM243.6 362.3c-3.8 2.7.2 9.5 4.2 7.1 2.4-1.6 2.8-5.5.6-7.1-1-.7-2.1-1.3-2.4-1.3-.3 0-1.4.6-2.4 1.3zM284.6 362.3c-2.2 1.6-1.8 5.5.7 7.1 3.9 2.4 7.9-4.4 4.1-7.1-1-.7-2.1-1.3-2.4-1.3-.3 0-1.4.6-2.4 1.3zM227 370.5c-.7.9-1 2.5-.6 4 .6 2.2 1.1 2.6 3.9 2.3 2.5-.2 3.3-.8 3.5-2.6.7-4.4-4.1-7-6.8-3.7zM300.2 369.9c-.8.4-1.2 2.1-1 3.7.2 2.5.7 2.9 3.2 2.9 3.6 0 5.6-2.7 4-5.3-1.3-1.9-4.3-2.6-6.2-1.3z"/></svg>